<?xml version="1.0" standalone="no"?>
<!DOCTYPE svg PUBLIC "-//W3C//DTD SVG 20010904//EN"
 "http://www.w3.org/TR/2001/REC-SVG-20010904/DTD/svg10.dtd">
<svg version="1.0" xmlns="http://www.w3.org/2000/svg"
 width="88.000000pt" height="88.000000pt" viewBox="0 0 88.000000 88.000000"
 preserveAspectRatio="xMidYMid meet">

<g transform="translate(0.000000,88.000000) scale(0.100000,-0.100000)"
fill="#000000" stroke="none">
<path d="M212 763 c-18 -9 -45 -32 -60 -51 l-27 -35 0 -217 0 -217 27 -35 c47
-62 72 -68 288 -68 216 0 241 6 288 68 l27 35 0 217 0 217 -27 35 c-48 62 -72
68 -290 68 -158 0 -199 -3 -226 -17z m192 -189 c10 -27 7 -89 -6 -102 -7 -7
-33 -12 -58 -12 -56 0 -70 12 -70 61 0 63 6 69 70 69 44 0 59 -4 64 -16z m201
-14 c0 -12 -16 -16 -74 -18 -73 -3 -100 6 -86 28 4 7 34 10 83 8 61 -2 77 -6
77 -18z m0 -100 c0 -12 -16 -16 -74 -18 -73 -3 -100 6 -86 28 4 7 34 10 83 8
61 -2 77 -6 77 -18z m-232 -92 c-21 -21 -41 -38 -47 -38 -12 0 -56 40 -56 52
0 12 38 10 45 -2 4 -6 21 2 42 21 28 24 38 28 44 17 6 -9 -4 -25 -28 -50z
m232 -8 c0 -12 -16 -16 -74 -18 -73 -3 -100 6 -86 28 4 7 34 10 83 8 61 -2 77
-6 77 -18z"/>
<path d="M310 525 c0 -32 2 -35 30 -35 28 0 30 3 30 35 0 32 -2 35 -30 35 -28
0 -30 -3 -30 -35z"/>
</g>
</svg>
